<?xml version="1.0" encoding="UTF-8" standalone="no"?>
<svg
   height="24px"
   viewBox="0 0 24 24"
   width="24px"
   fill="#000000"
   version="1.1"
   id="svg6"
   sodipodi:docname="icon.svg"
   inkscape:version="1.1.1 (3bf5ae0d25, 2021-09-20)"
   xmlns:inkscape="http://www.inkscape.org/namespaces/inkscape"
   xmlns:sodipodi="http://sodipodi.sourceforge.net/DTD/sodipodi-0.dtd"
   xmlns="http://www.w3.org/2000/svg"
   xmlns:svg="http://www.w3.org/2000/svg">
  <defs
     id="defs10" />
  <sodipodi:namedview
     id="namedview8"
     pagecolor="#ffffff"
     bordercolor="#cccccc"
     borderopacity="1"
     inkscape:pageshadow="0"
     inkscape:pageopacity="1"
     inkscape:pagecheckerboard="0"
     showgrid="false"
     inkscape:zoom="22.627417"
     inkscape:cx="1.2153398"
     inkscape:cy="9.7890095"
     inkscape:window-width="1920"
     inkscape:window-height="991"
     inkscape:window-x="-9"
     inkscape:window-y="-9"
     inkscape:window-maximized="1"
     inkscape:current-layer="svg6" />
  <path
     d="M0 0h24v24H0V0z"
     fill="none"
     id="path2" />
  <path
     d="M4 13h6c.55 0 1-.45 1-1V4c0-.55-.45-1-1-1H4c-.55 0-1 .45-1 1v8c0 .55.45 1 1 1zm0 8h6c.55 0 1-.45 1-1v-4c0-.55-.45-1-1-1H4c-.55 0-1 .45-1 1v4c0 .55.45 1 1 1zm10 0h6c.55 0 1-.45 1-1v-8c0-.55-.45-1-1-1h-6c-.55 0-1 .45-1 1v8c0 .55.45 1 1 1zM13 4v4c0 .55.45 1 1 1h6c.55 0 1-.45 1-1V4c0-.55-.45-1-1-1h-6c-.55 0-1 .45-1 1z"
     id="path4" />
  <rect
     style="fill:#f57f17;fill-opacity:1;stroke:none;stroke-width:1.512;stroke-miterlimit:4;stroke-dasharray:none;stroke-opacity:0"
     id="rect34"
     width="8.0797997"
     height="10.054863"
     x="2.9226933"
     y="3.004988"
     ry="1.0174564" />
  <rect
     style="fill:#f57f17;fill-opacity:1;stroke:none;stroke-width:1.512;stroke-miterlimit:4;stroke-dasharray:none;stroke-opacity:0"
     id="rect34-0"
     width="8.0797997"
     height="10.054863"
     x="12.987532"
     y="10.982544"
     ry="1.0174564" />
  <rect
     style="fill:#ffd600;fill-opacity:1;stroke:none;stroke-width:1.51946;stroke-miterlimit:4;stroke-dasharray:none;stroke-opacity:0"
     id="rect1778"
     width="8.0041275"
     height="6.0335846"
     x="2.9983661"
     y="14.966415"
     ry="0.96537346" />
  <rect
     style="fill:#00c850;fill-opacity:1;stroke:none;stroke-width:1.51946;stroke-miterlimit:4;stroke-dasharray:none;stroke-opacity:0"
     id="rect1778-6"
     width="8.0041275"
     height="6.0335846"
     x="13"
     y="2.9945827"
     ry="0.96537346" />
</svg>
